<svg xmlns="http://www.w3.org/2000/svg" xmlns:xlink="http://www.w3.org/1999/xlink" version="1.1" fill="#da552f" viewBox="0 0 24 30" x="0px" y="0px"><path d="M17 21h-10c-1.615-0.003-3.006-0.963-3.635-2.343l4.542-4.75 2.093 2.093 4.5-4.5 2.5 2.5v-6h-6l2.1 2.1-3.086 3.085-2.111-2.128-4.9 4.94v-8.997c0-2.209 1.791-4 4-4h10c2.209 0 4 1.791 4 4v10c0 0 0 0 0 0 0 2.209-1.791 4-4 4-0.001 0-0.002 0-0.003 0z"/><text x="0" y="39" fill="#000000" font-size="5px" font-weight="bold" font-family="'Helvetica Neue', Helvetica, Arial-Unicode, Arial, Sans-serif">Created by Travis Avery</text><text x="0" y="44" fill="#000000" font-size="5px" font-weight="bold" font-family="'Helvetica Neue', Helvetica, Arial-Unicode, Arial, Sans-serif">from the Noun Project</text></svg>