  <svg xmlns="http://www.w3.org/2000/svg" xmlns:xlink="http://www.w3.org/1999/xlink" version="1.1" x="0px" y="0px" viewBox="0 0 100 100" enable-background="new 0 0 100 100" xml:space="preserve" width="100" height="100"><g>
  <path fill="#ffffff" d="M66.123,45.436c-1.336-2.821-4.523-4.135-7.133-2.935c-0.555,0.256-1.03,0.623-1.445,1.051   c-0.596-1.18-1.595-2.081-2.855-2.531c-1.305-0.467-2.721-0.399-3.99,0.183c-0.796,0.367-1.438,0.921-1.941,1.568   c-0.389-0.279-0.805-0.525-1.271-0.691c-1.306-0.467-2.722-0.399-3.989,0.183c-0.555,0.255-1.028,0.609-1.444,1.011l-3.347-7.26   c-1.196-2.593-4.308-3.718-6.937-2.506c-1.267,0.584-2.236,1.62-2.728,2.916c-0.499,1.308-0.452,2.725,0.13,3.985l8.198,17.782   l-0.232-0.162c-2.468-1.757-5.945-1.189-7.757,1.263c-1.14,1.542-1.912,4.079,0.869,7.41c0.107,0.13,10.922,13.003,21.307,16.161   c0.172,0.053,0.343,0.077,0.514,0.077c0.752,0,1.449-0.487,1.68-1.246c0.282-0.928-0.24-1.911-1.17-2.192   C44.789,77.13,35.77,67.834,32.951,64.451c-1.596-1.912-1.061-2.637-0.742-3.07c0.68-0.92,1.978-1.139,2.898-0.484l5.202,3.667   l1.759,3.816c0.296,0.644,0.933,1.021,1.597,1.021c0.246,0,0.497-0.052,0.735-0.161c0.881-0.406,1.267-1.451,0.86-2.332   L32.366,38.937c-0.183-0.397-0.196-0.844-0.038-1.263c0.164-0.43,0.489-0.776,0.915-0.973c0.867-0.399,1.889-0.048,2.272,0.785   l5.383,11.676c0,0,0,0.001,0,0.001s0.001,0.001,0.001,0.001l2.941,6.379c0.406,0.881,1.45,1.268,2.332,0.861   c0.881-0.406,1.267-1.451,0.86-2.332l-2.942-6.382c-0.382-0.833,0.011-1.834,0.879-2.235c0.428-0.198,0.901-0.22,1.335-0.065   c0.42,0.15,0.753,0.452,0.937,0.849l2.941,6.38c0,0.001,0.001,0.002,0.001,0.002l0.401,0.869c0.296,0.644,0.932,1.021,1.597,1.021   c0.246,0,0.497-0.051,0.735-0.16c0.881-0.406,1.266-1.451,0.859-2.332l-2.482-5.387c-0.384-0.833,0.01-1.836,0.877-2.237   c0.429-0.198,0.902-0.22,1.336-0.065c0.42,0.15,0.753,0.452,0.936,0.849l3.147,6.826c0.405,0.882,1.45,1.268,2.332,0.861   c0.881-0.406,1.267-1.451,0.86-2.333l-0.973-2.11c0-0.001,0-0.002-0.001-0.003c-0.265-0.572-0.319-1.188-0.157-1.733   c0.082-0.269,0.293-0.756,0.81-0.995c0.854-0.395,1.997,0.191,2.497,1.276c0.02,0.039,0.039,0.078,0.059,0.115   c0.072,0.131,7.264,13.275,7.297,24.883c0.004,0.969,0.79,1.752,1.758,1.752c0.002,0,0.004,0,0.006,0   c0.971-0.004,1.756-0.791,1.752-1.764C73.793,59.703,66.721,46.528,66.123,45.436z"/>
  <path fill="#ffffff" d="M32.955,28.017c0.57,0,1.129-0.277,1.468-0.789c0.534-0.81,0.311-1.901-0.498-2.436l-0.909-0.601   c11.369-2.353,23.613-2.244,33.912,0.391c0.146,0.038,0.293,0.055,0.438,0.055c0.783,0,1.498-0.527,1.701-1.321   c0.24-0.941-0.326-1.898-1.267-2.139c-10.87-2.78-23.788-2.912-35.736-0.405l0.794-1.203c0.536-0.81,0.313-1.9-0.497-2.435   c-0.811-0.537-1.9-0.313-2.435,0.497l-3.048,4.613c-0.257,0.389-0.349,0.864-0.256,1.32c0.094,0.458,0.364,0.858,0.753,1.116   l4.611,3.046C32.285,27.923,32.622,28.017,32.955,28.017z"/></g></svg>
