<svg xmlns="http://www.w3.org/2000/svg" xmlns:xlink="http://www.w3.org/1999/xlink" version="1.1" x="0px" y="0px" viewBox="0 0 100 100" enable-background="new 0 0 100 100" xml:space="preserve"><g>
  <path fill="#ffffff" d="M64.574,55.023c-0.559-0.248-1.149-0.363-1.746-0.393c1.034-2.57-0.163-5.54-2.752-6.691   c-0.802-0.355-1.641-0.472-2.459-0.423c-0.047-0.477-0.137-0.952-0.319-1.411c-0.512-1.289-1.495-2.311-2.771-2.877   c-0.55-0.244-1.128-0.371-1.71-0.421l3.242-7.302c0.565-1.27,0.593-2.687,0.076-3.989c-0.512-1.288-1.496-2.309-2.771-2.875   c-1.274-0.565-2.693-0.61-3.991-0.127c-1.312,0.489-2.345,1.459-2.909,2.729L38.517,49.14l-0.03-0.282   c-0.307-3.01-3.001-5.233-6.069-4.995c-1.91,0.162-4.326,1.256-4.994,5.545c-0.025,0.166-2.555,16.792,1.922,26.674   c0.294,0.648,0.933,1.032,1.602,1.032c0.243,0,0.489-0.051,0.724-0.157c0.885-0.4,1.276-1.441,0.875-2.326   c-3.359-7.416-2.331-20.33-1.65-24.682c0.382-2.461,1.28-2.538,1.817-2.583c1.132-0.106,2.162,0.731,2.276,1.857l0.678,6.327   l-1.706,3.842c-0.394,0.887,0.006,1.925,0.894,2.319c0.231,0.104,0.474,0.151,0.712,0.151c0.674,0,1.316-0.39,1.607-1.045   L49.677,32.67c0.178-0.399,0.506-0.706,0.925-0.862c0.432-0.162,0.906-0.145,1.336,0.046c0.43,0.191,0.76,0.532,0.93,0.96   c0.165,0.416,0.158,0.864-0.021,1.265l-8.07,18.173c-0.394,0.887,0.006,1.926,0.894,2.32c0.886,0.393,1.925-0.008,2.319-0.895   l2.85-6.417c0.001-0.001,0.001-0.002,0.002-0.004c0.178-0.399,0.506-0.706,0.925-0.861c0.434-0.164,0.905-0.145,1.335,0.045   c0.43,0.191,0.76,0.531,0.93,0.96c0.164,0.415,0.157,0.864-0.02,1.264l-0.833,1.875v0l-2.409,5.421   c-0.394,0.889,0.006,1.926,0.893,2.32c0.891,0.396,1.925-0.006,2.321-0.893l2.408-5.422c0.372-0.838,1.384-1.203,2.259-0.817   c0.874,0.39,1.282,1.387,0.909,2.226l-3.05,6.87c-0.394,0.888,0.005,1.926,0.894,2.319c0.23,0.104,0.474,0.151,0.712,0.151   c0.674,0,1.316-0.39,1.607-1.045l0.941-2.12c0.001-0.003,0.003-0.005,0.004-0.007c0.255-0.575,0.681-1.024,1.198-1.261   c0.257-0.115,0.762-0.278,1.282-0.049c0.858,0.381,1.174,1.627,0.688,2.719c-0.017,0.039-0.033,0.08-0.048,0.119   c-0.05,0.141-5.18,14.218-13.876,21.905c-0.729,0.643-0.797,1.754-0.153,2.48c0.348,0.394,0.831,0.594,1.318,0.594   c0.413,0,0.828-0.146,1.162-0.44c9.182-8.115,14.412-22.125,14.837-23.294C68.313,59.452,67.199,56.189,64.574,55.023z"/>
  <path fill="#ffffff" d="M75.043,18.764l-3.048-4.614c-0.537-0.811-1.627-1.032-2.437-0.498c-0.81,0.535-1.032,1.626-0.498,2.436   l0.795,1.202c-11.945-2.504-24.864-2.375-35.734,0.406c-0.939,0.24-1.507,1.198-1.267,2.138c0.203,0.794,0.918,1.322,1.702,1.322   c0.144,0,0.291-0.017,0.437-0.055c10.297-2.635,22.541-2.742,33.913-0.391l-0.908,0.6c-0.811,0.535-1.033,1.625-0.499,2.435   c0.339,0.513,0.898,0.79,1.468,0.79c0.333,0,0.67-0.094,0.967-0.291l4.612-3.045c0.389-0.257,0.66-0.658,0.754-1.114   C75.392,19.628,75.3,19.153,75.043,18.764z"/></g>
</svg>
